<?xml version="1.0" encoding="UTF-8"?>
<svg xmlns="http://www.w3.org/2000/svg" xmlns:xlink="http://www.w3.org/1999/xlink" width="32pt" height="32pt" viewBox="0 0 32 32" version="1.1">
<g id="surface1">
<path style=" stroke:none;fill-rule:nonzero;fill:rgb(0%,0%,0%);fill-opacity:1;" d="M 22.261719 10.375 C 21.917969 10.375 21.636719 10.65625 21.636719 11 C 21.636719 11.347656 21.917969 11.625 22.261719 11.625 C 22.605469 11.625 22.886719 11.347656 22.886719 11 C 22.886719 10.65625 22.605469 10.375 22.261719 10.375 Z M 22.261719 10.375 "/>
<path style=" stroke:none;fill-rule:nonzero;fill:rgb(0%,0%,0%);fill-opacity:1;" d="M 24.855469 11.941406 C 24.636719 11.675781 24.238281 11.636719 23.972656 11.855469 C 23.707031 12.078125 23.667969 12.472656 23.886719 12.738281 C 24.8125 13.859375 25.363281 15.570312 25.363281 17.316406 C 25.363281 17.660156 25.644531 17.941406 25.988281 17.941406 C 26.332031 17.941406 26.613281 17.660156 26.613281 17.316406 C 26.613281 15.289062 25.957031 13.28125 24.855469 11.941406 Z M 24.855469 11.941406 "/>
<path style=" stroke:none;fill-rule:nonzero;fill:rgb(0%,0%,0%);fill-opacity:1;" d="M 27.175781 10.871094 C 25.824219 8.945312 23.972656 7.882812 21.957031 7.882812 C 20.019531 7.882812 18.691406 9.441406 17.886719 9.941406 L 17.886719 7.910156 C 17.886719 6.132812 18.578125 4.457031 19.835938 3.199219 C 20.570312 2.46875 20.570312 1.28125 19.839844 0.550781 C 19.105469 -0.183594 17.917969 -0.183594 17.183594 0.550781 C 15.730469 2.003906 14.757812 3.816406 14.351562 5.789062 C 12.960938 3.308594 10.304688 1.625 7.261719 1.625 L 6.011719 1.625 C 6.007812 1.625 6.003906 1.625 6 1.625 C 5.652344 1.632812 5.386719 1.917969 5.386719 2.25 L 5.386719 3.5 C 5.386719 5.398438 6.03125 7.195312 7.21875 8.640625 C 6.042969 9.304688 5.027344 10.378906 4.257812 11.785156 C 3.375 13.40625 2.886719 15.371094 2.886719 17.316406 C 2.886719 20.109375 3.898438 23.761719 5.464844 26.621094 C 7.363281 30.089844 9.78125 32 12.277344 32 C 12.734375 32 14.183594 31.457031 14.648438 31.148438 C 15.316406 30.707031 15.90625 30.855469 16.070312 30.839844 C 16.515625 30.785156 16.972656 30.898438 17.351562 31.148438 C 17.816406 31.457031 19.265625 32 19.722656 32 C 22.21875 32 24.636719 30.089844 26.535156 26.621094 C 28.101562 23.761719 29.113281 20.109375 29.113281 17.316406 C 29.113281 14.972656 28.410156 12.625 27.175781 10.871094 Z M 18.070312 1.433594 C 18.316406 1.191406 18.707031 1.191406 18.953125 1.433594 C 19.199219 1.675781 19.199219 2.074219 18.953125 2.316406 C 17.457031 3.8125 16.636719 5.800781 16.636719 7.910156 L 16.636719 10.371094 C 16.222656 10.441406 15.800781 10.441406 15.386719 10.375 C 15.386719 9.632812 15.386719 8.65625 15.386719 7.910156 C 15.386719 5.464844 16.339844 3.164062 18.070312 1.433594 Z M 6.644531 3.765625 L 9.320312 6.441406 C 9.566406 6.6875 9.957031 6.683594 10.203125 6.441406 C 10.449219 6.199219 10.449219 5.800781 10.203125 5.558594 L 7.527344 2.878906 C 11.195312 3.019531 14.136719 6.046875 14.136719 9.75 L 14.136719 9.957031 C 12.972656 9.261719 11.566406 7.175781 8.425781 8.125 C 7.328125 6.921875 6.703125 5.394531 6.644531 3.765625 Z M 25.441406 26.019531 C 24.476562 27.785156 22.453125 30.738281 19.738281 30.75 C 19.472656 30.714844 18.367188 30.324219 18.042969 30.105469 C 17.4375 29.707031 16.714844 29.523438 16 29.589844 C 15.285156 29.523438 14.5625 29.707031 13.957031 30.105469 C 13.628906 30.324219 12.527344 30.714844 12.261719 30.75 C 9.546875 30.738281 7.523438 27.785156 6.558594 26.019531 C 5.089844 23.332031 4.136719 19.917969 4.136719 17.316406 C 4.136719 13.707031 5.960938 10.390625 8.472656 9.425781 C 8.980469 9.234375 9.507812 9.136719 10.042969 9.132812 C 10.046875 9.132812 10.050781 9.132812 10.054688 9.132812 C 11.582031 9.132812 12.691406 10.632812 13.660156 11.117188 C 15.128906 11.855469 16.855469 11.863281 18.339844 11.117188 C 19.308594 10.632812 20.425781 9.132812 21.957031 9.132812 C 23.550781 9.132812 25.042969 10.003906 26.152344 11.589844 C 27.238281 13.136719 27.863281 15.226562 27.863281 17.316406 C 27.863281 19.917969 26.910156 23.332031 25.441406 26.019531 Z M 25.441406 26.019531 "/>
</g>
</svg>
