<?xml version="1.0" encoding="UTF-8"?>
<svg xmlns="http://www.w3.org/2000/svg" xmlns:xlink="http://www.w3.org/1999/xlink" width="42pt" height="42pt" viewBox="0 0 42 42" version="1.1">
<g id="surface1">
<path d="M 16.1875 14 L 3.0625 14 C 1.375 14 0 12.625 0 10.9375 L 0 3.0625 C 0 1.375 1.375 0 3.0625 0 L 16.1875 0 C 17.875 0 19.25 1.375 19.25 3.0625 L 19.25 10.9375 C 19.25 12.625 17.875 14 16.1875 14 Z M 3.0625 2.625 C 2.820312 2.625 2.625 2.820312 2.625 3.0625 L 2.625 10.9375 C 2.625 11.179688 2.820312 11.375 3.0625 11.375 L 16.1875 11.375 C 16.429688 11.375 16.625 11.179688 16.625 10.9375 L 16.625 3.0625 C 16.625 2.820312 16.429688 2.625 16.1875 2.625 Z M 3.0625 2.625 "/>
<path d="M 16.1875 42 L 3.0625 42 C 1.375 42 0 40.625 0 38.9375 L 0 20.5625 C 0 18.875 1.375 17.5 3.0625 17.5 L 16.1875 17.5 C 17.875 17.5 19.25 18.875 19.25 20.5625 L 19.25 38.9375 C 19.25 40.625 17.875 42 16.1875 42 Z M 3.0625 20.125 C 2.820312 20.125 2.625 20.320312 2.625 20.5625 L 2.625 38.9375 C 2.625 39.179688 2.820312 39.375 3.0625 39.375 L 16.1875 39.375 C 16.429688 39.375 16.625 39.179688 16.625 38.9375 L 16.625 20.5625 C 16.625 20.320312 16.429688 20.125 16.1875 20.125 Z M 3.0625 20.125 "/>
<path d="M 38.9375 42 L 25.8125 42 C 24.125 42 22.75 40.625 22.75 38.9375 L 22.75 31.0625 C 22.75 29.375 24.125 28 25.8125 28 L 38.9375 28 C 40.625 28 42 29.375 42 31.0625 L 42 38.9375 C 42 40.625 40.625 42 38.9375 42 Z M 25.8125 30.625 C 25.570312 30.625 25.375 30.820312 25.375 31.0625 L 25.375 38.9375 C 25.375 39.179688 25.570312 39.375 25.8125 39.375 L 38.9375 39.375 C 39.179688 39.375 39.375 39.179688 39.375 38.9375 L 39.375 31.0625 C 39.375 30.820312 39.179688 30.625 38.9375 30.625 Z M 25.8125 30.625 "/>
<path d="M 38.9375 24.5 L 25.8125 24.5 C 24.125 24.5 22.75 23.125 22.75 21.4375 L 22.75 3.0625 C 22.75 1.375 24.125 0 25.8125 0 L 38.9375 0 C 40.625 0 42 1.375 42 3.0625 L 42 21.4375 C 42 23.125 40.625 24.5 38.9375 24.5 Z M 25.8125 2.625 C 25.570312 2.625 25.375 2.820312 25.375 3.0625 L 25.375 21.4375 C 25.375 21.679688 25.570312 21.875 25.8125 21.875 L 38.9375 21.875 C 39.179688 21.875 39.375 21.679688 39.375 21.4375 L 39.375 3.0625 C 39.375 2.820312 39.179688 2.625 38.9375 2.625 Z M 25.8125 2.625 "/>
</g>
</svg>
