<?xml version="1.0" encoding="UTF-8"?>
<svg xmlns="http://www.w3.org/2000/svg" xmlns:xlink="http://www.w3.org/1999/xlink" width="32pt" height="32pt" viewBox="0 0 32 32" version="1.1">
<g id="surface1">
<path d="M 19.125 11.25 C 19.125 11.597656 18.847656 11.875 18.5 11.875 C 18.152344 11.875 17.875 11.597656 17.875 11.25 C 17.875 10.902344 18.152344 10.625 18.5 10.625 C 18.847656 10.625 19.125 10.902344 19.125 11.25 Z M 19.125 11.25 "/>
<path d="M 14.125 11.25 C 14.125 11.597656 13.847656 11.875 13.5 11.875 C 13.152344 11.875 12.875 11.597656 12.875 11.25 C 12.875 10.902344 13.152344 10.625 13.5 10.625 C 13.847656 10.625 14.125 10.902344 14.125 11.25 Z M 14.125 11.25 "/>
<path d="M 16 17.5 C 17.058594 17.5 18.003906 16.832031 18.355469 15.832031 C 18.472656 15.507812 18.300781 15.152344 17.976562 15.035156 C 17.652344 14.921875 17.292969 15.089844 17.179688 15.417969 C 17.003906 15.914062 16.527344 16.25 16 16.25 C 15.472656 16.25 14.996094 15.914062 14.820312 15.417969 C 14.707031 15.089844 14.347656 14.921875 14.023438 15.035156 C 13.699219 15.152344 13.527344 15.507812 13.644531 15.832031 C 13.996094 16.832031 14.941406 17.5 16 17.5 Z M 16 17.5 "/>
<path d="M 22.875 31.375 C 22.875 31.722656 22.597656 32 22.25 32 C 21.902344 32 21.625 31.722656 21.625 31.375 C 21.625 31.027344 21.902344 30.75 22.25 30.75 C 22.597656 30.75 22.875 31.027344 22.875 31.375 Z M 22.875 31.375 "/>
<path d="M 25.0625 30.75 C 24.714844 30.75 24.4375 31.027344 24.4375 31.375 C 24.4375 31.722656 24.714844 32 25.0625 32 L 27.25 32 C 27.597656 32 27.875 31.722656 27.875 31.375 L 27.875 26.210938 C 27.875 23.410156 25.8125 21.039062 23.042969 20.644531 L 20.535156 20.285156 C 19.855469 20.1875 19.296875 19.675781 19.160156 18.988281 C 20.476562 18.121094 21.675781 16.726562 22.589844 15 L 22.875 15 C 24.253906 15 25.375 13.878906 25.375 12.5 C 25.375 11.566406 24.839844 10.714844 24.03125 10.292969 C 24.03125 10.292969 24.125 8.132812 24.125 8.125 C 24.125 3.644531 20.480469 0 16 0 C 11.519531 0 7.875 3.644531 7.875 8.125 C 7.875 8.132812 7.875 8.144531 7.875 8.152344 L 7.96875 10.292969 C 7.160156 10.714844 6.625 11.566406 6.625 12.5 C 6.625 13.878906 7.746094 15 9.125 15 L 9.410156 15 C 10.324219 16.726562 11.523438 18.121094 12.839844 18.988281 C 12.703125 19.667969 12.148438 20.1875 11.464844 20.285156 L 8.957031 20.644531 C 6.183594 21.039062 4.125 23.414062 4.125 26.210938 L 4.125 31.375 C 4.125 31.722656 4.402344 32 4.75 32 L 19.4375 32 C 19.785156 32 20.0625 31.722656 20.0625 31.375 C 20.0625 31.027344 19.785156 30.75 19.4375 30.75 L 16.625 30.75 L 16.625 25.84375 L 20.121094 21.476562 C 20.199219 21.496094 20.277344 21.511719 20.355469 21.519531 L 21.625 21.703125 L 21.625 25.855469 C 20.898438 26.113281 20.375 26.808594 20.375 27.625 C 20.375 28.660156 21.214844 29.5 22.25 29.5 C 23.285156 29.5 24.125 28.660156 24.125 27.625 C 24.125 26.808594 23.601562 26.113281 22.875 25.855469 L 22.875 21.882812 C 25.011719 22.191406 26.625 24.050781 26.625 26.210938 L 26.625 30.75 Z M 16 24.625 L 13.035156 20.917969 C 13.472656 20.574219 13.796875 20.113281 13.972656 19.589844 C 14.640625 19.863281 15.316406 20 16 20 C 16.683594 20 17.359375 19.863281 18.027344 19.589844 C 18.203125 20.113281 18.527344 20.574219 18.964844 20.921875 Z M 16 1.25 C 19.785156 1.25 22.867188 4.324219 22.875 8.113281 L 22.796875 9.894531 C 22.113281 9.644531 21.625 8.988281 21.625 8.222656 L 21.625 8.125 C 21.625 7.777344 21.347656 7.5 21 7.5 L 18.796875 7.5 C 17.308594 7.5 15.972656 6.675781 15.308594 5.347656 C 15.179688 5.085938 14.886719 4.949219 14.605469 5.015625 C 14.324219 5.082031 14.125 5.335938 14.125 5.625 C 14.125 6.660156 13.285156 7.5 12.25 7.5 L 11 7.5 C 10.652344 7.5 10.375 7.777344 10.375 8.125 L 10.375 8.222656 C 10.375 8.988281 9.886719 9.644531 9.203125 9.894531 L 9.125 8.113281 C 9.132812 4.324219 12.214844 1.25 16 1.25 Z M 10.347656 14.097656 C 10.246094 13.886719 10.027344 13.75 9.789062 13.75 L 9.125 13.75 C 8.433594 13.75 7.875 13.191406 7.875 12.5 C 7.875 11.503906 8.824219 11.3125 8.953125 11.230469 C 10.277344 11.074219 11.347656 10.050781 11.578125 8.75 L 12.25 8.75 C 13.441406 8.75 14.480469 8.078125 15.007812 7.09375 C 15.964844 8.136719 17.324219 8.75 18.796875 8.75 L 20.421875 8.75 C 20.652344 10.050781 21.71875 11.070312 23.046875 11.230469 C 23.171875 11.308594 24.125 11.511719 24.125 12.5 C 24.125 13.191406 23.566406 13.75 22.875 13.75 L 22.210938 13.75 C 21.972656 13.75 21.753906 13.886719 21.652344 14.097656 C 20.550781 16.316406 18.480469 18.75 16 18.75 C 13.527344 18.75 11.464844 16.347656 10.347656 14.097656 Z M 5.375 30.75 L 5.375 26.210938 C 5.375 24.050781 6.988281 22.191406 9.125 21.882812 L 9.125 23.8125 C 7.699219 24.105469 6.625 25.363281 6.625 26.875 L 6.625 28.875 C 6.625 29.222656 6.902344 29.5 7.25 29.5 L 8.5 29.5 C 8.847656 29.5 9.125 29.222656 9.125 28.875 C 9.125 28.527344 8.847656 28.25 8.5 28.25 L 7.875 28.25 L 7.875 26.875 C 7.875 25.839844 8.714844 25 9.75 25 C 10.785156 25 11.625 25.839844 11.625 26.875 L 11.625 28.25 L 11 28.25 C 10.652344 28.25 10.375 28.527344 10.375 28.875 C 10.375 29.222656 10.652344 29.5 11 29.5 L 12.25 29.5 C 12.597656 29.5 12.875 29.222656 12.875 28.875 L 12.875 26.875 C 12.875 25.363281 11.800781 24.105469 10.375 23.8125 L 10.375 21.703125 L 11.644531 21.519531 C 11.722656 21.511719 11.800781 21.496094 11.878906 21.476562 L 15.375 25.84375 L 15.375 30.75 Z M 22.25 28.25 C 21.90625 28.25 21.625 27.96875 21.625 27.625 C 21.625 27.28125 21.90625 27 22.25 27 C 22.59375 27 22.875 27.28125 22.875 27.625 C 22.875 27.96875 22.59375 28.25 22.25 28.25 Z M 22.25 28.25 "/>
</g>
</svg>
