<?xml version="1.0" encoding="UTF-8"?>
<svg xmlns="http://www.w3.org/2000/svg" xmlns:xlink="http://www.w3.org/1999/xlink" width="32pt" height="32pt" viewBox="0 0 32 32" version="1.1">
<g id="surface1">
<path style=" stroke:none;fill-rule:nonzero;fill:rgb(0%,0%,0%);fill-opacity:1;" d="M 22.0625 21.507812 C 21.816406 21.265625 21.417969 21.269531 21.179688 21.515625 L 21.160156 21.535156 C 20.917969 21.78125 20.925781 22.175781 21.167969 22.417969 C 21.292969 22.535156 21.449219 22.597656 21.605469 22.597656 C 21.769531 22.597656 21.933594 22.535156 22.054688 22.410156 L 22.074219 22.390625 C 22.3125 22.144531 22.308594 21.75 22.0625 21.507812 Z M 22.0625 21.507812 "/>
<path style=" stroke:none;fill-rule:nonzero;fill:rgb(0%,0%,0%);fill-opacity:1;" d="M 28.785156 14.957031 L 27.125 14.957031 L 27.125 13.292969 C 27.125 12.949219 26.847656 12.667969 26.5 12.667969 C 26.152344 12.667969 25.875 12.949219 25.875 13.292969 L 25.875 14.957031 L 24.214844 14.957031 C 23.871094 14.957031 23.589844 15.234375 23.589844 15.582031 C 23.589844 15.925781 23.871094 16.207031 24.214844 16.207031 L 25.875 16.207031 L 25.875 17.863281 C 25.875 18.210938 26.152344 18.488281 26.5 18.488281 C 26.847656 18.488281 27.125 18.210938 27.125 17.863281 L 27.125 16.207031 L 28.785156 16.207031 C 29.128906 16.207031 29.410156 15.925781 29.410156 15.582031 C 29.410156 15.234375 29.128906 14.957031 28.785156 14.957031 Z M 28.785156 14.957031 "/>
<path style=" stroke:none;fill-rule:nonzero;fill:rgb(0%,0%,0%);fill-opacity:1;" d="M 28.542969 10.472656 C 27.960938 6.160156 24.355469 2.933594 20.074219 2.933594 C 17.910156 2.933594 15.886719 3.738281 14.3125 5.214844 C 12.738281 3.738281 10.714844 2.933594 8.550781 2.933594 C 3.835938 2.933594 0 6.859375 0 11.6875 C 0 12.644531 0.277344 13.710938 0.832031 14.890625 L 0.625 14.890625 C 0.277344 14.890625 0 15.171875 0 15.515625 C 0 15.863281 0.277344 16.140625 0.625 16.140625 L 1.496094 16.140625 C 2.664062 18.117188 4.511719 20.363281 7.027344 22.867188 C 10.441406 26.261719 13.898438 28.914062 13.933594 28.941406 C 14.042969 29.027344 14.179688 29.066406 14.3125 29.066406 C 14.445312 29.066406 14.582031 29.027344 14.691406 28.941406 C 14.71875 28.917969 17.363281 26.890625 20.296875 24.128906 C 20.546875 23.890625 20.558594 23.496094 20.324219 23.246094 C 20.085938 22.992188 19.691406 22.980469 19.4375 23.21875 C 17.203125 25.324219 15.136719 26.996094 14.3125 27.652344 C 13.332031 26.875 10.597656 24.660156 7.902344 21.972656 C 5.738281 19.824219 4.085938 17.863281 2.964844 16.140625 L 8.5625 16.140625 C 8.839844 16.140625 9.085938 15.957031 9.160156 15.691406 L 10.253906 11.882812 L 13.277344 21.570312 C 13.359375 21.832031 13.601562 22.011719 13.875 22.011719 C 14.148438 22.011719 14.390625 21.832031 14.472656 21.570312 L 16.144531 16.203125 L 18.9375 16.203125 C 19.28125 16.203125 19.5625 15.925781 19.5625 15.578125 C 19.5625 15.234375 19.28125 14.953125 18.9375 14.953125 L 15.6875 14.953125 C 15.414062 14.953125 15.171875 15.132812 15.089844 15.394531 L 13.875 19.285156 L 10.824219 9.519531 C 10.742188 9.253906 10.496094 9.074219 10.222656 9.078125 C 9.945312 9.082031 9.703125 9.265625 9.628906 9.53125 L 8.089844 14.890625 L 2.226562 14.890625 C 1.582031 13.671875 1.25 12.597656 1.25 11.6875 C 1.25 7.550781 4.527344 4.183594 8.550781 4.183594 C 10.578125 4.183594 12.457031 5.011719 13.855469 6.523438 C 13.972656 6.652344 14.136719 6.722656 14.3125 6.722656 C 14.488281 6.722656 14.652344 6.652344 14.769531 6.523438 C 16.167969 5.011719 18.046875 4.183594 20.074219 4.183594 C 23.554688 4.183594 26.511719 6.691406 27.214844 10.128906 C 26.980469 10.097656 26.742188 10.082031 26.5 10.082031 C 23.464844 10.082031 21 12.546875 21 15.582031 C 21 18.613281 23.464844 21.082031 26.5 21.082031 C 29.535156 21.082031 32 18.613281 32 15.582031 C 32 13.269531 30.566406 11.285156 28.542969 10.472656 Z M 26.5 19.832031 C 24.15625 19.832031 22.25 17.925781 22.25 15.582031 C 22.25 13.238281 24.15625 11.332031 26.5 11.332031 C 28.84375 11.332031 30.75 13.238281 30.75 15.582031 C 30.75 17.925781 28.84375 19.832031 26.5 19.832031 Z M 26.5 19.832031 "/>
</g>
</svg>
