<?xml version="1.0" encoding="UTF-8"?>
<svg xmlns="http://www.w3.org/2000/svg" xmlns:xlink="http://www.w3.org/1999/xlink" width="32pt" height="32pt" viewBox="0 0 32 32" version="1.1">
<g id="surface1">
<path  d="M 8.3125 5.1875 C 7.96875 5.1875 7.6875 5.46875 7.6875 5.8125 C 7.6875 6.15625 7.96875 6.4375 8.3125 6.4375 C 8.65625 6.4375 8.9375 6.15625 8.9375 5.8125 C 8.9375 5.46875 8.65625 5.1875 8.3125 5.1875 Z M 8.3125 5.1875 "/>
<path  d="M 16 0 C 7.375 0 0 7.363281 0 16 C 0 24.625 7.363281 32 16 32 C 24.625 32 32 24.636719 32 16 C 32 7.375 24.636719 0 16 0 Z M 16 30.75 C 8.003906 30.75 1.25 23.996094 1.25 16 C 1.25 8.003906 8.003906 1.25 16 1.25 C 23.996094 1.25 30.75 8.003906 30.75 16 C 30.75 23.996094 23.996094 30.75 16 30.75 Z M 16 30.75 "/>
<path  d="M 16 2.6875 C 13.996094 2.6875 11.875 3.152344 10.183594 3.957031 C 9.871094 4.105469 9.738281 4.480469 9.886719 4.789062 C 10.035156 5.101562 10.410156 5.234375 10.722656 5.085938 C 12.253906 4.355469 14.175781 3.9375 16 3.9375 C 22.539062 3.9375 28.0625 9.460938 28.0625 16 C 28.0625 22.539062 22.539062 28.0625 16 28.0625 C 9.460938 28.0625 3.9375 22.539062 3.9375 16 C 3.9375 13.011719 5.035156 10.070312 6.941406 7.925781 C 7.175781 7.667969 7.152344 7.269531 6.894531 7.042969 C 6.636719 6.8125 6.238281 6.835938 6.011719 7.09375 C 3.898438 9.464844 2.6875 12.710938 2.6875 16 C 2.6875 23.230469 8.753906 29.3125 16 29.3125 C 23.230469 29.3125 29.3125 23.246094 29.3125 16 C 29.3125 8.769531 23.246094 2.6875 16 2.6875 Z M 16 2.6875 "/>
<path  d="M 23.5 12.875 L 19.125 12.875 L 19.125 8.5 C 19.125 8.152344 18.847656 7.875 18.5 7.875 L 13.5 7.875 C 13.152344 7.875 12.875 8.152344 12.875 8.5 L 12.875 12.875 L 8.5 12.875 C 8.152344 12.875 7.875 13.152344 7.875 13.5 L 7.875 18.5 C 7.875 18.847656 8.152344 19.125 8.5 19.125 L 12.875 19.125 L 12.875 23.5 C 12.875 23.847656 13.152344 24.125 13.5 24.125 L 18.5 24.125 C 18.847656 24.125 19.125 23.847656 19.125 23.5 L 19.125 19.125 L 23.5 19.125 C 23.847656 19.125 24.125 18.847656 24.125 18.5 L 24.125 13.5 C 24.125 13.152344 23.847656 12.875 23.5 12.875 Z M 22.875 17.875 L 18.5 17.875 C 18.152344 17.875 17.875 18.152344 17.875 18.5 L 17.875 22.875 L 14.125 22.875 L 14.125 18.5 C 14.125 18.152344 13.847656 17.875 13.5 17.875 L 9.125 17.875 L 9.125 14.125 L 13.5 14.125 C 13.847656 14.125 14.125 13.847656 14.125 13.5 L 14.125 9.125 L 17.875 9.125 L 17.875 13.5 C 17.875 13.847656 18.152344 14.125 18.5 14.125 L 22.875 14.125 Z M 22.875 17.875 "/>
</g>
</svg>
