<?xml version="1.0" encoding="UTF-8"?>
<svg xmlns="http://www.w3.org/2000/svg" xmlns:xlink="http://www.w3.org/1999/xlink" width="32pt" height="32pt" viewBox="0 0 32 32" version="1.1">
<g id="surface1">
<path style=" stroke:none;fill-rule:nonzero;fill:rgb(0%,0%,0%);fill-opacity:1;" d="M 19.878906 16.089844 C 24.148438 16.089844 27.621094 12.617188 27.621094 8.347656 C 27.621094 4.082031 24.148438 0.605469 19.878906 0.605469 C 15.613281 0.605469 12.140625 4.082031 12.140625 8.347656 C 12.140625 12.617188 15.613281 16.089844 19.878906 16.089844 Z M 19.878906 1.855469 C 23.457031 1.855469 26.371094 4.769531 26.371094 8.347656 C 26.371094 11.925781 23.457031 14.839844 19.878906 14.839844 C 16.300781 14.839844 13.390625 11.925781 13.390625 8.347656 C 13.390625 4.769531 16.300781 1.855469 19.878906 1.855469 Z M 19.878906 1.855469 "/>
<path style=" stroke:none;fill-rule:nonzero;fill:rgb(0%,0%,0%);fill-opacity:1;" d="M 16.699219 10.15625 L 18.074219 10.15625 L 18.074219 11.527344 C 18.074219 11.871094 18.351562 12.152344 18.699219 12.152344 L 21.066406 12.152344 C 21.410156 12.152344 21.691406 11.871094 21.691406 11.527344 L 21.691406 10.15625 L 23.058594 10.15625 C 23.402344 10.15625 23.683594 9.878906 23.683594 9.53125 L 23.683594 7.164062 C 23.683594 6.816406 23.402344 6.539062 23.058594 6.539062 L 21.691406 6.539062 L 21.691406 5.167969 C 21.691406 4.824219 21.410156 4.542969 21.066406 4.542969 L 18.699219 4.542969 C 18.351562 4.542969 18.074219 4.824219 18.074219 5.167969 L 18.074219 6.539062 L 16.699219 6.539062 C 16.355469 6.539062 16.074219 6.816406 16.074219 7.164062 L 16.074219 9.53125 C 16.074219 9.878906 16.355469 10.15625 16.699219 10.15625 Z M 17.324219 7.789062 L 18.699219 7.789062 C 19.042969 7.789062 19.324219 7.511719 19.324219 7.164062 L 19.324219 5.792969 L 20.441406 5.792969 L 20.441406 7.164062 C 20.441406 7.511719 20.71875 7.789062 21.066406 7.789062 L 22.433594 7.789062 L 22.433594 8.90625 L 21.066406 8.90625 C 20.71875 8.90625 20.441406 9.1875 20.441406 9.53125 L 20.441406 10.902344 L 19.324219 10.902344 L 19.324219 9.53125 C 19.324219 9.1875 19.042969 8.90625 18.699219 8.90625 L 17.324219 8.90625 Z M 17.324219 7.789062 "/>
<path style=" stroke:none;fill-rule:nonzero;fill:rgb(0%,0%,0%);fill-opacity:1;" d="M 31.375 16.546875 L 28.296875 16.546875 C 27.953125 16.546875 27.671875 16.828125 27.671875 17.171875 L 27.671875 19.851562 L 12.65625 19.851562 L 12.65625 18.660156 C 12.65625 17.183594 11.453125 15.980469 9.976562 15.980469 L 5.753906 15.980469 C 5.230469 15.980469 4.742188 16.132812 4.328125 16.394531 L 4.328125 13.054688 C 4.328125 12.710938 4.046875 12.429688 3.703125 12.429688 L 0.625 12.429688 C 0.277344 12.429688 0 12.710938 0 13.054688 L 0 30.769531 C 0 31.113281 0.277344 31.394531 0.625 31.394531 L 7.355469 31.394531 C 7.699219 31.394531 7.980469 31.113281 7.980469 30.769531 L 7.980469 28.425781 L 24.019531 28.425781 L 24.019531 30.769531 C 24.019531 31.113281 24.300781 31.394531 24.644531 31.394531 L 31.375 31.394531 C 31.722656 31.394531 32 31.113281 32 30.769531 L 32 17.171875 C 32 16.828125 31.722656 16.546875 31.375 16.546875 Z M 28.921875 17.796875 L 30.75 17.796875 L 30.75 27.175781 L 28.921875 27.175781 Z M 27.671875 24.558594 L 18.824219 24.558594 C 18.480469 24.558594 18.199219 24.839844 18.199219 25.183594 C 18.199219 25.53125 18.480469 25.808594 18.824219 25.808594 L 27.671875 25.808594 L 27.671875 27.175781 L 4.328125 27.175781 L 4.328125 25.808594 L 13.175781 25.808594 C 13.519531 25.808594 13.800781 25.53125 13.800781 25.183594 C 13.800781 24.839844 13.519531 24.558594 13.175781 24.558594 L 4.328125 24.558594 L 4.328125 21.101562 L 27.671875 21.101562 Z M 5.753906 17.230469 L 9.976562 17.230469 C 10.765625 17.230469 11.40625 17.871094 11.40625 18.660156 L 11.40625 19.851562 L 4.328125 19.851562 L 4.328125 18.660156 C 4.328125 17.871094 4.96875 17.230469 5.753906 17.230469 Z M 1.25 13.679688 L 3.078125 13.679688 L 3.078125 27.175781 L 1.25 27.175781 Z M 6.730469 30.144531 L 1.25 30.144531 L 1.25 28.425781 L 6.730469 28.425781 Z M 30.75 30.144531 L 25.269531 30.144531 L 25.269531 28.425781 L 30.75 28.425781 Z M 30.75 30.144531 "/>
<path style=" stroke:none;fill-rule:nonzero;fill:rgb(0%,0%,0%);fill-opacity:1;" d="M 15.433594 25.425781 C 15.535156 25.671875 15.792969 25.832031 16.058594 25.808594 C 16.324219 25.785156 16.546875 25.597656 16.613281 25.347656 C 16.683594 25.101562 16.585938 24.832031 16.378906 24.683594 C 16.175781 24.53125 15.886719 24.519531 15.671875 24.660156 C 15.421875 24.824219 15.320312 25.148438 15.433594 25.425781 Z M 15.433594 25.425781 "/>
</g>
</svg>
