<?xml version="1.0" encoding="UTF-8"?>
<svg xmlns="http://www.w3.org/2000/svg" xmlns:xlink="http://www.w3.org/1999/xlink" width="32pt" height="32pt" viewBox="0 0 32 32" version="1.1">
<g id="surface1">
<path style=" stroke:none;fill-rule:nonzero;fill:rgb(0%,0%,0%);fill-opacity:1;" d="M 25.476562 31.136719 L 6.523438 31.136719 C 5.417969 31.132812 4.527344 30.238281 4.523438 29.136719 L 4.523438 6.566406 C 4.527344 5.464844 5.417969 4.570312 6.523438 4.566406 L 10.277344 4.566406 C 10.519531 4.566406 10.710938 4.761719 10.710938 5 C 10.710938 5.238281 10.519531 5.433594 10.277344 5.433594 L 6.523438 5.433594 C 5.898438 5.433594 5.390625 5.941406 5.390625 6.566406 L 5.390625 29.136719 C 5.390625 29.761719 5.898438 30.269531 6.523438 30.269531 L 25.476562 30.269531 C 26.101562 30.269531 26.609375 29.761719 26.609375 29.136719 L 26.609375 6.566406 C 26.609375 5.941406 26.101562 5.433594 25.476562 5.433594 L 21.722656 5.433594 C 21.480469 5.433594 21.289062 5.238281 21.289062 5 C 21.289062 4.761719 21.480469 4.566406 21.722656 4.566406 L 25.476562 4.566406 C 26.582031 4.570312 27.472656 5.464844 27.476562 6.566406 L 27.476562 29.136719 C 27.472656 30.238281 26.582031 31.132812 25.476562 31.136719 Z M 25.476562 31.136719 "/>
<path style=" stroke:none;fill-rule:nonzero;fill:rgb(0%,0%,0%);fill-opacity:1;" d="M 24.625 28.660156 L 7.375 28.660156 C 7.136719 28.660156 6.941406 28.464844 6.941406 28.226562 L 6.941406 7.476562 C 6.941406 7.238281 7.136719 7.042969 7.375 7.042969 L 10.277344 7.042969 C 10.511719 7.042969 10.707031 7.238281 10.707031 7.476562 C 10.707031 7.714844 10.511719 7.910156 10.277344 7.910156 L 7.808594 7.910156 L 7.808594 27.792969 L 24.191406 27.792969 L 24.191406 7.910156 L 21.722656 7.910156 C 21.488281 7.910156 21.292969 7.714844 21.292969 7.476562 C 21.292969 7.238281 21.488281 7.042969 21.722656 7.042969 L 24.625 7.042969 C 24.863281 7.042969 25.058594 7.238281 25.058594 7.476562 L 25.058594 28.226562 C 25.058594 28.464844 24.863281 28.660156 24.625 28.660156 Z M 24.625 28.660156 "/>
<path style=" stroke:none;fill-rule:nonzero;fill:rgb(0%,0%,0%);fill-opacity:1;" d="M 21.082031 8.488281 L 10.917969 8.488281 C 10.316406 8.488281 9.832031 8.003906 9.832031 7.40625 L 9.832031 5.261719 C 9.835938 4.261719 10.644531 3.453125 11.644531 3.453125 L 13.769531 3.453125 L 14.097656 2.328125 C 14.328125 1.464844 15.113281 0.863281 16.007812 0.863281 C 16.902344 0.871094 17.683594 1.476562 17.902344 2.34375 L 18.230469 3.453125 L 20.355469 3.453125 C 21.355469 3.453125 22.164062 4.261719 22.164062 5.261719 L 22.164062 7.40625 C 22.164062 8.003906 21.683594 8.488281 21.082031 8.488281 Z M 11.644531 4.316406 C 11.121094 4.316406 10.699219 4.742188 10.699219 5.261719 L 10.699219 7.40625 C 10.699219 7.527344 10.796875 7.621094 10.917969 7.621094 L 21.082031 7.621094 C 21.203125 7.621094 21.300781 7.527344 21.300781 7.40625 L 21.300781 5.261719 C 21.300781 4.742188 20.878906 4.316406 20.355469 4.316406 L 17.910156 4.316406 C 17.71875 4.316406 17.550781 4.191406 17.496094 4.007812 L 17.070312 2.574219 C 16.953125 2.082031 16.515625 1.734375 16.007812 1.730469 C 15.503906 1.726562 15.058594 2.066406 14.933594 2.558594 L 14.503906 4.007812 C 14.449219 4.191406 14.28125 4.316406 14.089844 4.316406 Z M 11.644531 4.316406 "/>
<path style=" stroke:none;fill-rule:nonzero;fill:rgb(0%,0%,0%);fill-opacity:1;" d="M 16.652344 3.277344 C 16.652344 3.636719 16.359375 3.925781 16 3.925781 C 15.640625 3.925781 15.347656 3.636719 15.347656 3.277344 C 15.347656 2.917969 15.640625 2.625 16 2.625 C 16.359375 2.625 16.652344 2.917969 16.652344 3.277344 Z M 16.652344 3.277344 "/>
<path style=" stroke:none;fill-rule:nonzero;fill:rgb(0%,0%,0%);fill-opacity:1;" d="M 16 4.140625 C 15.523438 4.140625 15.136719 3.753906 15.136719 3.277344 C 15.136719 2.800781 15.523438 2.410156 16 2.410156 C 16.476562 2.410156 16.863281 2.800781 16.863281 3.277344 C 16.863281 3.753906 16.476562 4.140625 16 4.140625 Z M 16 2.839844 C 15.761719 2.839844 15.566406 3.035156 15.566406 3.273438 C 15.566406 3.511719 15.761719 3.707031 16 3.707031 C 16.238281 3.707031 16.433594 3.511719 16.433594 3.273438 C 16.433594 3.035156 16.238281 2.839844 16 2.839844 Z M 16 2.839844 "/>
<path style=" stroke:none;fill-rule:nonzero;fill:rgb(0%,0%,0%);fill-opacity:1;" d="M 21.597656 12.675781 L 10.402344 12.675781 C 10.164062 12.675781 9.972656 12.480469 9.972656 12.242188 C 9.972656 12.003906 10.164062 11.808594 10.402344 11.808594 L 21.597656 11.808594 C 21.835938 11.808594 22.027344 12.003906 22.027344 12.242188 C 22.027344 12.480469 21.835938 12.675781 21.597656 12.675781 Z M 21.597656 12.675781 "/>
<path style=" stroke:none;fill-rule:nonzero;fill:rgb(0%,0%,0%);fill-opacity:1;" d="M 21.597656 16.566406 L 10.402344 16.566406 C 10.164062 16.566406 9.972656 16.375 9.972656 16.136719 C 9.972656 15.894531 10.164062 15.703125 10.402344 15.703125 L 21.597656 15.703125 C 21.835938 15.703125 22.027344 15.894531 22.027344 16.136719 C 22.027344 16.375 21.835938 16.566406 21.597656 16.566406 Z M 21.597656 16.566406 "/>
<path style=" stroke:none;fill-rule:nonzero;fill:rgb(0%,0%,0%);fill-opacity:1;" d="M 11.113281 23.257812 C 10.945312 23.257812 10.792969 23.160156 10.722656 23.011719 C 10.648438 22.863281 10.671875 22.683594 10.777344 22.550781 L 12.433594 20.519531 C 12.527344 20.394531 12.683594 20.332031 12.839844 20.355469 C 12.996094 20.378906 13.121094 20.484375 13.175781 20.632812 C 13.230469 20.777344 13.203125 20.941406 13.101562 21.0625 L 11.449219 23.097656 C 11.363281 23.199219 11.242188 23.257812 11.113281 23.257812 Z M 11.113281 23.257812 "/>
<path style=" stroke:none;fill-rule:nonzero;fill:rgb(0%,0%,0%);fill-opacity:1;" d="M 17.6875 23.25 C 17.488281 23.25 17.3125 23.113281 17.265625 22.917969 C 17.21875 22.722656 17.3125 22.519531 17.492188 22.429688 L 20.378906 20.988281 C 20.59375 20.878906 20.855469 20.964844 20.960938 21.179688 C 21.066406 21.394531 20.980469 21.652344 20.769531 21.761719 L 17.882812 23.203125 C 17.820312 23.234375 17.753906 23.25 17.6875 23.25 Z M 17.6875 23.25 "/>
<path style=" stroke:none;fill-rule:nonzero;fill:rgb(0%,0%,0%);fill-opacity:1;" d="M 15.953125 23.003906 C 15.832031 23.003906 15.722656 22.957031 15.640625 22.871094 L 13.832031 20.980469 C 13.664062 20.808594 13.671875 20.535156 13.84375 20.371094 C 14.015625 20.203125 14.289062 20.210938 14.457031 20.382812 L 16.261719 22.273438 C 16.382812 22.398438 16.417969 22.582031 16.347656 22.742188 C 16.28125 22.902344 16.125 23.003906 15.953125 23.003906 Z M 15.953125 23.003906 "/>
<path style=" stroke:none;fill-rule:nonzero;fill:rgb(0%,0%,0%);fill-opacity:1;" d="M 10.449219 25.117188 C 9.636719 25.117188 8.972656 24.457031 8.972656 23.640625 C 8.972656 22.824219 9.636719 22.160156 10.449219 22.160156 C 11.269531 22.160156 11.929688 22.824219 11.929688 23.640625 C 11.929688 24.457031 11.269531 25.117188 10.449219 25.117188 Z M 10.449219 23.027344 C 10.113281 23.027344 9.839844 23.300781 9.839844 23.640625 C 9.839844 23.980469 10.113281 24.253906 10.449219 24.253906 C 10.789062 24.253906 11.066406 23.980469 11.066406 23.640625 C 11.066406 23.300781 10.789062 23.027344 10.449219 23.027344 Z M 10.449219 23.027344 "/>
<path style=" stroke:none;fill-rule:nonzero;fill:rgb(0%,0%,0%);fill-opacity:1;" d="M 13.394531 21.433594 C 12.578125 21.433594 11.917969 20.769531 11.917969 19.953125 C 11.917969 19.136719 12.578125 18.476562 13.394531 18.476562 C 14.210938 18.476562 14.875 19.136719 14.871094 19.957031 C 14.871094 20.769531 14.210938 21.433594 13.394531 21.433594 Z M 13.394531 19.339844 C 13.054688 19.339844 12.78125 19.617188 12.78125 19.957031 C 12.78125 20.292969 13.058594 20.566406 13.394531 20.566406 C 13.734375 20.566406 14.007812 20.292969 14.007812 19.957031 C 14.007812 19.617188 13.734375 19.339844 13.394531 19.339844 Z M 13.394531 19.339844 "/>
<path style=" stroke:none;fill-rule:nonzero;fill:rgb(0%,0%,0%);fill-opacity:1;" d="M 16.738281 24.742188 C 15.925781 24.742188 15.261719 24.078125 15.261719 23.261719 C 15.261719 22.445312 15.925781 21.785156 16.742188 21.785156 C 17.558594 21.785156 18.21875 22.449219 18.21875 23.265625 C 18.214844 24.082031 17.554688 24.738281 16.738281 24.742188 Z M 16.738281 22.648438 C 16.402344 22.648438 16.128906 22.925781 16.128906 23.261719 C 16.128906 23.601562 16.402344 23.875 16.738281 23.878906 C 17.078125 23.878906 17.351562 23.605469 17.355469 23.265625 C 17.355469 22.925781 17.082031 22.648438 16.738281 22.648438 Z M 16.738281 22.648438 "/>
<path style=" stroke:none;fill-rule:nonzero;fill:rgb(0%,0%,0%);fill-opacity:1;" d="M 21.550781 22.480469 C 20.730469 22.480469 20.070312 21.816406 20.070312 21 C 20.070312 20.183594 20.730469 19.523438 21.550781 19.523438 C 22.363281 19.523438 23.027344 20.183594 23.027344 21 C 23.027344 21.816406 22.363281 22.480469 21.550781 22.480469 Z M 21.550781 20.386719 C 21.207031 20.386719 20.933594 20.660156 20.933594 21 C 20.933594 21.339844 21.210938 21.613281 21.550781 21.613281 C 21.886719 21.613281 22.160156 21.339844 22.160156 21 C 22.160156 20.660156 21.886719 20.386719 21.550781 20.386719 Z M 21.550781 20.386719 "/>
</g>
</svg>
