<?xml version="1.0" encoding="UTF-8"?>
<svg xmlns="http://www.w3.org/2000/svg" xmlns:xlink="http://www.w3.org/1999/xlink" width="32pt" height="32pt" viewBox="0 0 32 32" version="1.1">
<g id="surface1">
<path d="M 29.148438 5.527344 C 24.746094 4.320312 20.316406 2.441406 16.339844 0.09375 C 16.128906 -0.03125 15.871094 -0.03125 15.660156 0.09375 C 11.566406 2.507812 7.378906 4.285156 2.851562 5.527344 C 2.558594 5.605469 2.355469 5.871094 2.355469 6.175781 L 2.355469 13.050781 C 2.355469 20.136719 5.621094 24.824219 8.363281 27.511719 C 11.316406 30.402344 14.753906 32 16 32 C 17.246094 32 20.683594 30.402344 23.636719 27.511719 C 26.378906 24.824219 29.644531 20.136719 29.644531 13.050781 L 29.644531 6.175781 C 29.644531 5.871094 29.441406 5.605469 29.148438 5.527344 Z M 28.300781 13.050781 C 28.300781 19.667969 25.25 24.042969 22.695312 26.546875 C 19.792969 29.390625 16.691406 30.652344 16 30.652344 C 15.308594 30.652344 12.207031 29.390625 9.304688 26.546875 C 6.75 24.042969 3.699219 19.667969 3.699219 13.050781 L 3.699219 6.683594 C 8.03125 5.457031 12.0625 3.738281 16 1.453125 C 19.839844 3.679688 24.074219 5.480469 28.300781 6.683594 Z M 28.300781 13.050781 "/>
<path d="M 10.035156 6.609375 C 9.898438 6.265625 9.507812 6.09375 9.160156 6.230469 C 7.957031 6.707031 6.722656 7.140625 5.492188 7.527344 C 5.210938 7.613281 5.019531 7.875 5.019531 8.167969 L 5.019531 10.769531 C 5.019531 11.140625 5.324219 11.441406 5.691406 11.441406 C 6.066406 11.441406 6.367188 11.140625 6.367188 10.769531 L 6.367188 8.660156 C 7.472656 8.304688 8.574219 7.910156 9.652344 7.484375 C 10 7.347656 10.167969 6.957031 10.035156 6.609375 Z M 10.035156 6.609375 "/>
<path d="M 11.3125 6.738281 C 11.402344 6.738281 11.496094 6.71875 11.582031 6.683594 L 11.59375 6.675781 C 11.933594 6.527344 12.089844 6.128906 11.941406 5.789062 C 11.789062 5.449219 11.390625 5.292969 11.050781 5.445312 L 11.039062 5.449219 C 10.699219 5.597656 10.542969 5.996094 10.695312 6.335938 C 10.804688 6.589844 11.050781 6.738281 11.3125 6.738281 Z M 11.3125 6.738281 "/>
<path d="M 24.019531 21.707031 C 23.707031 21.503906 23.292969 21.589844 23.089844 21.902344 C 22.535156 22.75 21.882812 23.5625 21.152344 24.316406 C 20.554688 24.9375 19.902344 25.515625 19.222656 26.035156 C 18.925781 26.261719 18.871094 26.683594 19.097656 26.980469 C 19.230469 27.152344 19.429688 27.242188 19.632812 27.242188 C 19.773438 27.242188 19.917969 27.199219 20.039062 27.105469 C 20.773438 26.542969 21.476562 25.921875 22.121094 25.253906 C 22.910156 24.4375 23.613281 23.558594 24.214844 22.636719 C 24.417969 22.324219 24.332031 21.910156 24.019531 21.707031 Z M 24.019531 21.707031 "/>
<path d="M 17.660156 27.089844 L 17.621094 27.113281 C 17.300781 27.300781 17.191406 27.710938 17.375 28.035156 C 17.5 28.246094 17.726562 28.371094 17.957031 28.371094 C 18.074219 28.371094 18.191406 28.339844 18.296875 28.277344 L 18.339844 28.253906 C 18.660156 28.066406 18.769531 27.652344 18.582031 27.332031 C 18.394531 27.011719 17.980469 26.902344 17.660156 27.089844 Z M 17.660156 27.089844 "/>
<path d="M 11.410156 14.625 C 10.996094 14.214844 10.449219 13.984375 9.863281 13.984375 C 9.277344 13.984375 8.730469 14.214844 8.316406 14.625 C 7.464844 15.480469 7.464844 16.867188 8.316406 17.722656 L 12.292969 21.695312 C 12.703125 22.109375 13.253906 22.339844 13.839844 22.339844 C 14.425781 22.339844 14.972656 22.109375 15.386719 21.695312 L 23.683594 13.398438 C 24.535156 12.542969 24.535156 11.15625 23.683594 10.300781 C 23.269531 9.890625 22.722656 9.660156 22.136719 9.660156 C 21.550781 9.660156 21.003906 9.890625 20.589844 10.300781 L 13.839844 17.050781 Z M 21.542969 11.253906 C 21.699219 11.097656 21.910156 11.007812 22.136719 11.007812 C 22.363281 11.007812 22.574219 11.097656 22.730469 11.253906 C 23.058594 11.582031 23.058594 12.117188 22.730469 12.449219 L 14.433594 20.746094 C 14.277344 20.902344 14.066406 20.992188 13.839844 20.992188 C 13.613281 20.992188 13.402344 20.902344 13.242188 20.746094 L 9.269531 16.769531 C 8.941406 16.441406 8.941406 15.90625 9.269531 15.578125 C 9.425781 15.417969 9.636719 15.332031 9.863281 15.332031 C 10.089844 15.332031 10.300781 15.417969 10.460938 15.578125 L 13.363281 18.480469 C 13.488281 18.605469 13.660156 18.675781 13.839844 18.675781 C 14.019531 18.675781 14.1875 18.605469 14.316406 18.480469 Z M 21.542969 11.253906 "/>
</g>
</svg>
