<?xml version="1.0" encoding="UTF-8"?>
<svg xmlns="http://www.w3.org/2000/svg" xmlns:xlink="http://www.w3.org/1999/xlink" width="32pt" height="32pt" viewBox="0 0 32 32" version="1.1">
<g id="surface1">
<path d="M 6.625 11.625 C 6.28125 11.625 6 11.902344 6 12.25 C 6 12.59375 6.28125 12.875 6.625 12.875 C 6.96875 12.875 7.25 12.59375 7.25 12.25 C 7.25 11.902344 6.96875 11.625 6.625 11.625 Z M 6.625 11.625 "/>
<path d="M 21.625 12.875 L 18.5 12.875 L 18.5 9.75 C 18.5 9.402344 18.222656 9.125 17.875 9.125 L 14.125 9.125 C 13.777344 9.125 13.5 9.402344 13.5 9.75 L 13.5 12.875 L 10.375 12.875 C 10.027344 12.875 9.75 13.152344 9.75 13.5 L 9.75 17.25 C 9.75 17.597656 10.027344 17.875 10.375 17.875 L 13.5 17.875 L 13.5 21 C 13.5 21.347656 13.777344 21.625 14.125 21.625 L 17.875 21.625 C 18.222656 21.625 18.5 21.347656 18.5 21 L 18.5 17.875 L 21.625 17.875 C 21.972656 17.875 22.25 17.597656 22.25 17.25 L 22.25 13.5 C 22.25 13.152344 21.972656 12.875 21.625 12.875 Z M 21 16.625 L 17.875 16.625 C 17.527344 16.625 17.25 16.902344 17.25 17.25 L 17.25 20.375 L 14.75 20.375 L 14.75 17.25 C 14.75 16.902344 14.472656 16.625 14.125 16.625 L 11 16.625 L 11 14.125 L 14.125 14.125 C 14.472656 14.125 14.75 13.847656 14.75 13.5 L 14.75 10.375 L 17.25 10.375 L 17.25 13.5 C 17.25 13.847656 17.527344 14.125 17.875 14.125 L 21 14.125 Z M 21 16.625 "/>
<path d="M 25.648438 1.921875 C 24.636719 2.578125 23.460938 2.925781 22.25 2.925781 C 20.398438 2.925781 18.652344 2.109375 17.457031 0.691406 C 17.089844 0.25 16.558594 0 16 0 C 15.441406 0 14.910156 0.25 14.542969 0.691406 C 13.347656 2.109375 11.601562 2.925781 9.75 2.925781 C 8.539062 2.925781 7.363281 2.578125 6.351562 1.921875 C 5.113281 1.121094 3.5 2.0625 3.5 3.519531 L 3.5 16.269531 C 3.5 19.105469 4.410156 21.875 6.058594 24.066406 C 10.144531 29.5 15.527344 31.851562 15.753906 31.949219 C 15.832031 31.980469 15.917969 32 16 32 C 16.082031 32 16.167969 31.980469 16.246094 31.949219 C 16.472656 31.851562 21.855469 29.5 25.941406 24.070312 C 27.589844 21.875 28.5 19.105469 28.5 16.269531 L 28.5 3.519531 C 28.5 2.0625 26.882812 1.121094 25.648438 1.921875 Z M 24.941406 23.316406 C 21.542969 27.835938 17.085938 30.164062 16 30.6875 C 14.914062 30.164062 10.464844 27.847656 7.058594 23.316406 C 5.570312 21.339844 4.75 18.832031 4.75 16.269531 L 4.75 3.519531 C 4.75 3.042969 5.277344 2.714844 5.671875 2.96875 C 6.886719 3.757812 8.296875 4.175781 9.75 4.175781 C 11.972656 4.175781 14.066406 3.199219 15.5 1.492188 C 15.628906 1.335938 15.808594 1.25 16 1.25 C 16.191406 1.25 16.371094 1.335938 16.5 1.492188 C 17.933594 3.199219 20.027344 4.175781 22.25 4.175781 C 23.703125 4.175781 25.113281 3.757812 26.328125 2.96875 C 26.71875 2.714844 27.25 3.035156 27.25 3.519531 L 27.25 16.269531 C 27.25 18.832031 26.429688 21.339844 24.941406 23.316406 Z M 24.941406 23.316406 "/>
<path d="M 25.734375 5.003906 C 25.570312 4.886719 25.355469 4.855469 25.167969 4.921875 C 24.226562 5.253906 23.246094 5.425781 22.25 5.425781 C 20.101562 5.425781 18.027344 4.632812 16.417969 3.191406 C 16.179688 2.980469 15.820312 2.980469 15.582031 3.191406 C 13.972656 4.632812 11.898438 5.425781 9.75 5.425781 C 8.753906 5.425781 7.773438 5.253906 6.832031 4.921875 C 6.644531 4.855469 6.429688 4.886719 6.265625 5.003906 C 6.097656 5.117188 6 5.308594 6 5.511719 L 6 9.75 C 6 10.097656 6.28125 10.375 6.625 10.375 C 6.972656 10.375 7.25 10.097656 7.25 9.75 L 7.25 6.355469 C 8.066406 6.566406 8.902344 6.675781 9.75 6.675781 C 12.027344 6.675781 14.222656 5.898438 16 4.476562 C 17.777344 5.898438 19.976562 6.675781 22.25 6.675781 C 23.097656 6.675781 23.933594 6.566406 24.75 6.355469 L 24.75 16.269531 C 24.75 18.296875 24.109375 20.265625 22.941406 21.8125 C 20.578125 24.957031 17.691406 26.902344 16.003906 27.863281 C 14.308594 26.890625 11.402344 24.929688 9.058594 21.816406 C 7.894531 20.265625 7.25 18.292969 7.25 16.269531 L 7.25 14.75 C 7.25 14.402344 6.972656 14.125 6.625 14.125 C 6.277344 14.125 6 14.402344 6 14.75 L 6 16.269531 C 6 18.566406 6.730469 20.800781 8.058594 22.566406 C 10.6875 26.058594 13.976562 28.175781 15.703125 29.125 C 15.796875 29.175781 15.902344 29.203125 16.003906 29.203125 C 16.109375 29.203125 16.210938 29.175781 16.304688 29.128906 C 18.019531 28.191406 21.289062 26.089844 23.941406 22.566406 C 25.269531 20.800781 26 18.566406 26 16.269531 L 26 5.511719 C 26 5.308594 25.902344 5.117188 25.734375 5.003906 Z M 25.734375 5.003906 "/>
</g>
</svg>
