<?xml version="1.0" encoding="UTF-8"?>
<svg xmlns="http://www.w3.org/2000/svg" xmlns:xlink="http://www.w3.org/1999/xlink" width="32pt" height="32pt" viewBox="0 0 32 32" version="1.1">
<g id="surface1">
<path d="M 18 25.75 C 17.835938 25.75 17.675781 25.816406 17.558594 25.933594 C 17.441406 26.050781 17.375 26.210938 17.375 26.375 C 17.375 26.539062 17.441406 26.699219 17.558594 26.816406 C 17.675781 26.933594 17.835938 27 18 27 C 18.164062 27 18.324219 26.933594 18.441406 26.816406 C 18.558594 26.699219 18.625 26.539062 18.625 26.375 C 18.625 26.210938 18.558594 26.050781 18.441406 25.933594 C 18.324219 25.816406 18.164062 25.75 18 25.75 Z M 18 25.75 "/>
<path d="M 18 28.25 C 17.652344 28.25 17.375 28.527344 17.375 28.875 L 17.375 30.75 L 14.625 30.75 L 14.625 13.949219 C 14.625 13.605469 14.347656 13.324219 14 13.324219 C 13.652344 13.324219 13.375 13.605469 13.375 13.949219 L 13.375 31.375 C 13.375 31.722656 13.652344 32 14 32 L 18 32 C 18.347656 32 18.625 31.722656 18.625 31.375 L 18.625 28.875 C 18.625 28.527344 18.347656 28.25 18 28.25 Z M 18 28.25 "/>
<path d="M 14 12.074219 C 14.164062 12.074219 14.324219 12.011719 14.441406 11.894531 C 14.558594 11.777344 14.625 11.613281 14.625 11.449219 C 14.625 11.285156 14.558594 11.125 14.441406 11.011719 C 14.324219 10.894531 14.164062 10.824219 14 10.824219 C 13.835938 10.824219 13.675781 10.894531 13.558594 11.011719 C 13.441406 11.125 13.375 11.285156 13.375 11.449219 C 13.375 11.613281 13.441406 11.777344 13.558594 11.894531 C 13.675781 12.011719 13.835938 12.074219 14 12.074219 Z M 14 12.074219 "/>
<path d="M 32 11.058594 L 32 6.625 C 32 6.277344 31.722656 6 31.375 6 L 26.75 6 L 26.75 3.683594 C 27.824219 3.433594 28.625 2.464844 28.625 1.316406 L 28.625 0.625 C 28.625 0.277344 28.347656 0 28 0 C 27.652344 0 27.375 0.277344 27.375 0.625 L 27.375 1.316406 C 27.375 1.769531 27.121094 2.160156 26.75 2.359375 L 26.75 2.230469 C 26.75 1.882812 26.472656 1.605469 26.125 1.605469 C 25.777344 1.605469 25.5 1.882812 25.5 2.230469 L 25.5 2.273438 C 25.203125 2.058594 25.011719 1.710938 25.011719 1.316406 L 25.011719 0.625 C 25.011719 0.277344 24.730469 0 24.386719 0 L 7.613281 0 C 7.269531 0 6.988281 0.277344 6.988281 0.625 L 6.988281 1.316406 C 6.988281 1.710938 6.796875 2.058594 6.5 2.273438 L 6.5 2.230469 C 6.5 1.882812 6.222656 1.605469 5.875 1.605469 C 5.527344 1.605469 5.25 1.882812 5.25 2.230469 L 5.25 2.359375 C 4.878906 2.160156 4.625 1.769531 4.625 1.316406 L 4.625 0.625 C 4.625 0.277344 4.347656 0 4 0 C 3.652344 0 3.375 0.277344 3.375 0.625 L 3.375 1.316406 C 3.375 2.464844 4.175781 3.433594 5.25 3.683594 L 5.25 6 L 0.625 6 C 0.277344 6 0 6.277344 0 6.625 L 0 15.714844 C 0 17.792969 1.355469 19.558594 3.230469 20.175781 L 3.230469 22.035156 C 3.230469 22.347656 3.457031 22.601562 3.75 22.652344 L 3.75 24.25 C 3.75 25.203125 4.382812 26.011719 5.25 26.28125 L 5.25 31.375 C 5.25 31.722656 5.527344 32 5.875 32 C 6.222656 32 6.5 31.722656 6.5 31.375 L 6.5 26.28125 C 7.367188 26.011719 8 25.203125 8 24.25 L 8 22.652344 C 8.292969 22.601562 8.519531 22.347656 8.519531 22.035156 L 8.519531 20.175781 C 10.394531 19.558594 11.75 17.792969 11.75 15.714844 L 11.75 6.625 C 11.75 6.277344 11.472656 6 11.125 6 L 6.5 6 L 6.5 3.648438 C 7.503906 3.347656 8.238281 2.417969 8.238281 1.316406 L 8.238281 1.25 L 13.375 1.25 L 13.375 8.949219 C 13.375 9.296875 13.652344 9.574219 14 9.574219 C 14.347656 9.574219 14.625 9.296875 14.625 8.949219 L 14.625 1.25 L 17.375 1.25 L 17.375 23.875 C 17.375 24.222656 17.652344 24.5 18 24.5 C 18.347656 24.5 18.625 24.222656 18.625 23.875 L 18.625 1.25 L 23.761719 1.25 L 23.761719 1.316406 C 23.761719 2.417969 24.496094 3.347656 25.5 3.648438 L 25.5 6 L 20.875 6 C 20.527344 6 20.25 6.277344 20.25 6.625 L 20.25 15.714844 C 20.25 17.792969 21.605469 19.558594 23.480469 20.175781 L 23.480469 22.035156 C 23.480469 22.347656 23.707031 22.601562 24 22.652344 L 24 24.25 C 24 25.203125 24.632812 26.011719 25.5 26.28125 L 25.5 31.375 C 25.5 31.722656 25.777344 32 26.125 32 C 26.472656 32 26.75 31.722656 26.75 31.375 L 26.75 26.28125 C 27.617188 26.011719 28.25 25.203125 28.25 24.25 L 28.25 22.652344 C 28.542969 22.601562 28.769531 22.347656 28.769531 22.035156 L 28.769531 20.175781 C 30.644531 19.558594 32 17.792969 32 15.714844 Z M 6.75 24.25 C 6.75 24.730469 6.355469 25.125 5.875 25.125 C 5.394531 25.125 5 24.730469 5 24.25 L 5 22.660156 L 6.75 22.660156 Z M 7.269531 20.410156 L 7.269531 21.410156 L 4.480469 21.410156 L 4.480469 20.410156 Z M 7.050781 19.160156 L 4.699219 19.160156 C 2.796875 19.160156 1.25 17.613281 1.25 15.714844 L 1.25 11.824219 L 1.316406 11.871094 L 1.308594 11.878906 C 1.359375 11.816406 2.527344 10.394531 5.578125 12.050781 C 6.742188 12.683594 7.730469 12.894531 8.535156 12.894531 C 9.171875 12.894531 9.695312 12.761719 10.097656 12.59375 C 10.242188 12.535156 10.378906 12.46875 10.5 12.402344 L 10.5 15.714844 C 10.5 17.613281 8.953125 19.160156 7.050781 19.160156 Z M 10.5 10.839844 C 10.128906 11.238281 8.777344 12.363281 6.171875 10.953125 C 3.753906 9.640625 2.15625 9.921875 1.25 10.386719 L 1.25 7.25 L 10.5 7.25 Z M 30.75 7.25 L 30.75 10.839844 C 30.378906 11.238281 29.027344 12.363281 26.421875 10.953125 C 24.003906 9.640625 22.40625 9.921875 21.5 10.386719 L 21.5 7.25 Z M 27 24.25 C 27 24.730469 26.605469 25.125 26.125 25.125 C 25.644531 25.125 25.25 24.730469 25.25 24.25 L 25.25 22.660156 L 27 22.660156 Z M 27.519531 20.410156 L 27.519531 21.410156 L 24.730469 21.410156 L 24.730469 20.410156 Z M 27.300781 19.160156 L 24.949219 19.160156 C 23.046875 19.160156 21.5 17.613281 21.5 15.714844 L 21.5 11.824219 L 21.566406 11.871094 L 21.558594 11.878906 C 21.609375 11.816406 22.777344 10.394531 25.828125 12.050781 C 26.992188 12.683594 27.980469 12.894531 28.785156 12.894531 C 29.421875 12.894531 29.945312 12.761719 30.347656 12.59375 C 30.492188 12.535156 30.628906 12.46875 30.75 12.402344 L 30.75 15.714844 C 30.75 17.613281 29.203125 19.160156 27.300781 19.160156 Z M 27.300781 19.160156 "/>
</g>
</svg>
