<?xml version="1.0" encoding="UTF-8"?>
<svg xmlns="http://www.w3.org/2000/svg" xmlns:xlink="http://www.w3.org/1999/xlink" width="32pt" height="32pt" viewBox="0 0 32 32" version="1.1">
<g id="surface1">
<path d="M 28 15 C 28 15.347656 27.722656 15.625 27.375 15.625 C 27.027344 15.625 26.75 15.347656 26.75 15 C 26.75 14.652344 27.027344 14.375 27.375 14.375 C 27.722656 14.375 28 14.652344 28 15 Z M 28 15 "/>
<path d="M 28.519531 13.132812 C 28.835938 13.277344 29.207031 13.136719 29.347656 12.824219 C 30.039062 11.308594 30.375 9.769531 30.375 8.125 C 30.375 4.121094 27.335938 0 23.261719 0 C 19.9375 0 17.25 2.511719 16 4.292969 C 14.75 2.511719 12.0625 0 8.738281 0 C 4.667969 0 1.625 4.121094 1.625 8.125 C 1.625 12.457031 4.003906 16.28125 9.324219 20.503906 C 9.6875 21.757812 10.507812 22.824219 11.625 23.496094 L 11.625 31.375 C 11.625 31.722656 11.902344 32 12.25 32 L 19.75 32 C 20.097656 32 20.375 31.722656 20.375 31.375 L 20.375 23.273438 C 20.574219 22.859375 20.816406 22.457031 21.082031 21.714844 C 23.066406 20.261719 24.671875 18.898438 25.972656 17.554688 C 26.214844 17.304688 26.210938 16.910156 25.960938 16.667969 C 25.714844 16.429688 25.316406 16.433594 25.078125 16.683594 C 24.097656 17.695312 22.933594 18.722656 21.546875 19.796875 C 21.597656 19.40625 21.625 19.007812 21.625 18.609375 C 21.625 17.160156 21.625 13.410156 21.625 11.875 C 21.625 10.839844 20.785156 10 19.75 10 C 19.503906 10 19.273438 10.046875 19.058594 10.132812 C 18.839844 9.335938 18.113281 8.75 17.25 8.75 C 17.003906 8.75 16.773438 8.796875 16.558594 8.882812 C 16.339844 8.085938 15.613281 7.5 14.75 7.5 C 13.886719 7.5 13.160156 8.085938 12.941406 8.882812 C 12.726562 8.796875 12.496094 8.75 12.25 8.75 C 11.214844 8.75 10.375 9.589844 10.375 10.625 L 10.375 15.105469 C 9.648438 15.363281 9.125 16.058594 9.125 16.875 L 9.125 18.722656 C 4.816406 15.082031 2.875 11.773438 2.875 8.125 C 2.875 4.871094 5.285156 1.25 8.738281 1.25 C 11.621094 1.25 14.515625 3.855469 15.4375 5.769531 C 15.542969 5.988281 15.761719 6.125 16 6.125 C 16.238281 6.125 16.457031 5.988281 16.5625 5.769531 C 17.472656 3.882812 20.347656 1.25 23.261719 1.25 C 26.714844 1.25 29.125 4.871094 29.125 8.125 C 29.125 9.589844 28.824219 10.957031 28.214844 12.304688 C 28.070312 12.621094 28.207031 12.988281 28.519531 13.132812 Z M 19.125 30.75 L 12.875 30.75 L 12.875 23.75 L 19.125 23.75 Z M 14.125 9.375 C 14.125 9.03125 14.40625 8.75 14.75 8.75 C 15.09375 8.75 15.375 9.03125 15.375 9.375 L 15.375 15 L 14.125 15 Z M 12.25 10 C 12.59375 10 12.875 10.28125 12.875 10.625 L 12.875 15 L 11.625 15 L 11.625 10.625 C 11.625 10.28125 11.90625 10 12.25 10 Z M 10.375 16.875 C 10.375 16.53125 10.65625 16.25 11 16.25 L 15.269531 16.25 C 15.011719 16.976562 14.316406 17.5 13.5 17.5 L 12.25 17.5 C 11.902344 17.5 11.625 17.777344 11.625 18.125 C 11.625 18.472656 11.902344 18.75 12.25 18.75 C 13.285156 18.75 14.125 19.589844 14.125 20.625 C 14.125 20.972656 14.402344 21.25 14.75 21.25 C 15.097656 21.25 15.375 20.972656 15.375 20.625 C 15.375 19.832031 15.078125 19.105469 14.589844 18.554688 C 15.777344 18.113281 16.625 16.964844 16.625 15.625 L 16.625 10.625 C 16.625 10.28125 16.90625 10 17.25 10 C 17.59375 10 17.875 10.28125 17.875 10.625 L 17.875 15.625 C 17.875 15.972656 18.152344 16.25 18.5 16.25 C 18.847656 16.25 19.125 15.972656 19.125 15.625 L 19.125 11.875 C 19.125 11.53125 19.40625 11.25 19.75 11.25 C 20.09375 11.25 20.375 11.53125 20.375 11.875 L 20.375 18.609375 C 20.375 20.480469 19.777344 21.621094 19.363281 22.5 L 12.40625 22.5 C 11.121094 21.800781 10.375 20.472656 10.375 19.082031 Z M 10.375 16.875 "/>
</g>
</svg>
